<svg width="82" height="82" xmlns="http://www.w3.org/2000/svg"><g fill="none" fill-rule="evenodd"><circle fill="#3BB6EF" cx="41" cy="41" r="40"/><path d="M40.633 23c4.85 0 8.78 3.879 8.78 8.663 0 4.785-3.93 8.664-8.78 8.664-4.849 0-8.78-3.879-8.78-8.664S35.787 23 40.634 23zm0 0c4.85 0 8.78 3.879 8.78 8.663 0 4.785-3.93 8.664-8.78 8.664-4.849 0-8.78-3.879-8.78-8.664S35.787 23 40.634 23zm-3.292 20.215h7.318c6.264 0 11.341 5.01 11.341 11.19v.722c0 2.435-5.078 2.528-11.341 2.528H37.34c-6.264 0-11.341-.004-11.341-2.528v-.721c0-6.182 5.077-11.19 11.341-11.19z" fill="#FFF" fill-rule="nonzero"/></g></svg>